<?xml version="1.0" encoding="UTF-8" standalone="no"?>
<svg
   id="NAV"
   width="9.8772802"
   height="18.976099"
   viewBox="0 0 9.8772287 18.976"
   version="1.1"
   sodipodi:docname="back.svg"
   inkscape:version="1.3.2 (091e20e, 2023-11-25, custom)"
   xmlns:inkscape="http://www.inkscape.org/namespaces/inkscape"
   xmlns:sodipodi="http://sodipodi.sourceforge.net/DTD/sodipodi-0.dtd"
   xmlns="http://www.w3.org/2000/svg"
   xmlns:svg="http://www.w3.org/2000/svg">
  <sodipodi:namedview
     id="namedview1"
     pagecolor="#ffffff"
     bordercolor="#000000"
     borderopacity="0.25"
     inkscape:showpageshadow="2"
     inkscape:pageopacity="0.0"
     inkscape:pagecheckerboard="0"
     inkscape:deskcolor="#d1d1d1"
     inkscape:zoom="2.7466667"
     inkscape:cx="170.75243"
     inkscape:cy="14.01699"
     inkscape:window-width="1920"
     inkscape:window-height="1017"
     inkscape:window-x="-8"
     inkscape:window-y="-8"
     inkscape:window-maximized="1"
     inkscape:current-layer="NAV" />
  <defs
     id="defs1" />
  <g
     id="Navigation_Bar"
     data-name="Navigation Bar"
     transform="translate(-16.601397,-12.642438)">
    <path
       id="Icon-2"
       data-name="Icon"
       d="M 7.791,17.764 0.327,10.2 A 0.987,0.987 0 0 1 0.149,9.363 1.011,1.011 0 0 1 0.193,8.24 c 0.256,-0.327 7.351,-8 7.351,-8 a 0.562,0.562 0 0 1 0.928,0 1.009,1.009 0 0 1 0,1.184 L 1.361,9.16 8.674,16.572 a 0.99,0.99 0 0 1 0.03,1.164 0.553,0.553 0 0 1 -0.913,0.029 z"
       transform="translate(17.101,13.137)"
       fill="#ffffff"
       stroke="#e88b38"
       stroke-width="1" />
  </g>
</svg>
