<svg xmlns="http://www.w3.org/2000/svg" width="29.998" height="30" viewBox="0 0 29.998 30">
  <path id="Fill_172" data-name="Fill 172" d="M16.982,30H13.017a1.994,1.994,0,0,1-1.984-2V26.3a11.891,11.891,0,0,1-3.727-2.2L4.958,25.464a1.961,1.961,0,0,1-.989.269,1.989,1.989,0,0,1-1.72-1L.266,21.268a2.011,2.011,0,0,1,.725-2.732l2.324-1.353A11.967,11.967,0,0,1,3.1,15a12.112,12.112,0,0,1,.216-2.184L.991,11.464A2.011,2.011,0,0,1,.266,8.732L2.249,5.268a1.972,1.972,0,0,1,2.709-.732L7.305,5.9a11.892,11.892,0,0,1,3.727-2.2V2a1.994,1.994,0,0,1,1.984-2h3.965a1.994,1.994,0,0,1,1.985,2V3.7a11.879,11.879,0,0,1,3.727,2.2l2.347-1.365a1.972,1.972,0,0,1,2.709.732l1.983,3.464a2.01,2.01,0,0,1-.725,2.732l-2.323,1.352A11.971,11.971,0,0,1,26.9,15a12.109,12.109,0,0,1-.216,2.183l2.323,1.353a2.008,2.008,0,0,1,.725,2.732L27.75,24.732a1.989,1.989,0,0,1-1.72,1,1.966,1.966,0,0,1-.989-.269L22.693,24.1a11.869,11.869,0,0,1-3.727,2.2V28A1.994,1.994,0,0,1,16.982,30Zm-9.4-8.372h0A9.936,9.936,0,0,0,13.017,24.8V27a1,1,0,0,0,.991,1h1.984a1,1,0,0,0,.991-1V24.8a9.937,9.937,0,0,0,5.435-3.171l2.755,1.6a.988.988,0,0,0,1.355-.365l.992-1.733a1,1,0,0,0-.363-1.364L24.39,18.157a9.727,9.727,0,0,0,0-6.314l2.767-1.611a1.008,1.008,0,0,0,.363-1.366l-.992-1.732a.987.987,0,0,0-1.355-.366l-2.755,1.6A9.94,9.94,0,0,0,16.982,5.2V3a1,1,0,0,0-.991-1H14.008a1,1,0,0,0-.991,1V5.2A9.948,9.948,0,0,0,7.582,8.372l-2.755-1.6a.987.987,0,0,0-1.355.366L2.479,8.866a1.006,1.006,0,0,0,.363,1.366l2.766,1.611a9.743,9.743,0,0,0,0,6.314L2.842,19.769a1,1,0,0,0-.363,1.364l.992,1.733a.988.988,0,0,0,1.355.365l2.754-1.6ZM15,20a5,5,0,1,1,4.959-5A4.985,4.985,0,0,1,15,20Zm0-8a3,3,0,1,0,2.975,3A2.991,2.991,0,0,0,15,12Z" transform="translate(-0.001)" fill="#d8e0e6"/>
</svg>
