<svg xmlns="http://www.w3.org/2000/svg" width="26" height="19" viewBox="0 0 26 19">
  <g id="Group_26" data-name="Group 26" transform="translate(-363 -43)">
    <path id="Icon" d="M0,16a2,2,0,1,1,2,2A2,2,0,0,1,0,16ZM0,9a2,2,0,1,1,2,2A2,2,0,0,1,0,9ZM0,2A2,2,0,1,1,2,4,2,2,0,0,1,0,2Z" transform="translate(384.5 43.5)" fill="#fff" stroke="#e88b38" stroke-width="1"/>
    <g id="Rectangle_12" data-name="Rectangle 12" transform="translate(363 50)" fill="#fff" stroke="#e88b38" stroke-width="1">
      <rect width="19" height="5" rx="2.5" stroke="none"/>
      <rect x="0.5" y="0.5" width="18" height="4" rx="2" fill="none"/>
    </g>
    <g id="Rectangle_13" data-name="Rectangle 13" transform="translate(368 43)" fill="#fff" stroke="#e88b38" stroke-width="1">
      <rect width="14" height="5" rx="2.5" stroke="none"/>
      <rect x="0.5" y="0.5" width="13" height="4" rx="2" fill="none"/>
    </g>
    <g id="Rectangle_14" data-name="Rectangle 14" transform="translate(372 57)" fill="#fff" stroke="#e88b38" stroke-width="1">
      <rect width="10" height="5" rx="2.5" stroke="none"/>
      <rect x="0.5" y="0.5" width="9" height="4" rx="2" fill="none"/>
    </g>
  </g>
</svg>
