<svg xmlns="http://www.w3.org/2000/svg" width="17.992" height="20.302" viewBox="0 0 17.992 20.302">
  <g id="Icon_akar-person" data-name="Icon akar-person" transform="translate(-3.895 -2)">
    <path id="Path_12" data-name="Path 12" d="M19.651,7.575A4.575,4.575,0,1,1,15.075,3a4.575,4.575,0,0,1,4.575,4.575Z" transform="translate(-2.184)" fill="none" stroke="#c15324" stroke-width="2"/>
    <path id="Path_13" data-name="Path 13" d="M17.466,21h.322a2.745,2.745,0,0,1,2.723,2.4l.358,2.859a1.83,1.83,0,0,1-1.816,2.057H6.729a1.83,1.83,0,0,1-1.816-2.057L5.269,23.4A2.745,2.745,0,0,1,7.994,21h.321" transform="translate(0 -7.019)" fill="none" stroke="#c15324" stroke-linecap="round" stroke-linejoin="round" stroke-width="2"/>
  </g>
</svg>
