<svg xmlns="http://www.w3.org/2000/svg" width="21.911" height="21.911" viewBox="0 0 21.911 21.911">
  <path id="Icon_corebrands-apple-podcasts" data-name="Icon corebrands-apple-podcasts" d="M4.875,0A4.862,4.862,0,0,0,0,4.875V17.036a4.862,4.862,0,0,0,4.875,4.875H17.036a4.862,4.862,0,0,0,4.875-4.875V4.875A4.862,4.862,0,0,0,17.036,0ZM10.83,2.342a7.51,7.51,0,0,1,5.532,2.364,7.554,7.554,0,0,1,2.065,4.009,10.653,10.653,0,0,1,.006,2.614,7.768,7.768,0,0,1-2.956,4.836,9.162,9.162,0,0,1-2.133,1.152c-.082,0-.088-.082-.053-.421.068-.542.131-.653.438-.781a7.15,7.15,0,0,0,1.833-1.309A6.976,6.976,0,0,0,17.4,11.576a8.556,8.556,0,0,0-.043-3.2,6.819,6.819,0,0,0-5.135-4.886,8.627,8.627,0,0,0-2.739,0A6.875,6.875,0,0,0,4.3,8.538a9.279,9.279,0,0,0,0,3.046A7,7,0,0,0,7.214,15.7a5.854,5.854,0,0,0,.753.432c.306.131.375.243.431.781.036.332.028.425-.049.425a6.232,6.232,0,0,1-.821-.35l-.036-.028a7.626,7.626,0,0,1-4.23-5.489A10.059,10.059,0,0,1,3.237,8.7a7.681,7.681,0,0,1,2-3.93,7.553,7.553,0,0,1,5.6-2.426Zm.125,2.568a5.223,5.223,0,0,1,1.009.1,5.153,5.153,0,0,1,2.885,8.267,4.575,4.575,0,0,1-1.184,1.049,1.884,1.884,0,0,1-.043-.55v-.553L14,12.767a4.155,4.155,0,0,0-.232-5.68,3.943,3.943,0,0,0-2.215-1.137,2.762,2.762,0,0,0-1.319-.008,4,4,0,0,0-2.3,1.145,4.147,4.147,0,0,0-.238,5.68l.378.453v.557a1.362,1.362,0,0,1-.058.553A2.978,2.978,0,0,1,7.551,14l-.032-.011a5.484,5.484,0,0,1-1.708-2.735,6.075,6.075,0,0,1,.008-2.482A5.363,5.363,0,0,1,9.3,5.1,5.394,5.394,0,0,1,10.95,4.91Zm-.121,2.728a1.749,1.749,0,0,1,.774.164,1.987,1.987,0,0,1,.948,1.148,1.775,1.775,0,0,1-2.486,2.058h-.01a1.7,1.7,0,0,1-1.01-1.616A1.787,1.787,0,0,1,10.067,7.8a1.721,1.721,0,0,1,.77-.161Zm-.008,4.319a1.793,1.793,0,0,1,1.8.884,11.336,11.336,0,0,1-.2,3.927c-.21,1.512-.328,1.893-.62,2.151a1.5,1.5,0,0,1-1.513.264h0c-.653-.236-.792-.553-1.063-2.415a11.371,11.371,0,0,1-.2-3.927,1.8,1.8,0,0,1,1.8-.884Z" transform="translate(0 0)" fill="#aaa"/>
</svg>
